<svg width="512" height="512" viewBox="0 0 512 512" fill="none" xmlns="http://www.w3.org/2000/svg">
<rect x="46" y="46" width="420" height="420" rx="64" fill="#25262C"/>
<path d="M333.625 391.835H178.375C172.422 391.829 166.715 389.461 162.506 385.251C158.296 381.042 155.929 375.335 155.922 369.382V142.282C155.929 136.329 158.296 130.621 162.506 126.412C166.715 122.203 172.422 119.835 178.375 119.828H333.625C339.578 119.835 345.285 122.203 349.494 126.412C353.704 130.621 356.071 136.329 356.078 142.282V369.382C356.071 375.335 353.704 381.042 349.494 385.251C345.285 389.461 339.578 391.829 333.625 391.835Z" fill="white"/>
<path d="M309.247 300.116H202.754C191.875 300.064 191.83 283.493 202.754 283.436L309.247 283.436C320.118 283.487 320.177 300.059 309.247 300.116Z" fill="#CECECE"/>
<path d="M309.247 166.641H202.754C191.875 166.588 191.83 150.018 202.754 149.961L309.247 149.961C320.118 150.012 320.177 166.584 309.247 166.641Z" fill="#CECECE"/>
<path d="M309.247 330.909H202.754C191.875 330.857 191.83 314.286 202.754 314.23L309.247 314.23C320.118 314.281 320.177 330.852 309.247 330.909Z" fill="#CECECE"/>
<path d="M309.247 361.703H202.754C191.875 361.65 191.83 345.08 202.754 345.023L309.247 345.023C320.118 345.074 320.177 361.646 309.247 361.703Z" fill="#CECECE"/>
<path d="M307.322 263.421H204.678C201.871 263.417 199.181 262.301 197.196 260.317C195.212 258.332 194.096 255.642 194.093 252.835V195.355C194.096 192.548 195.212 189.858 197.196 187.873C199.181 185.889 201.871 184.773 204.678 184.77H307.322C310.128 184.773 312.819 185.889 314.803 187.873C316.788 189.858 317.904 192.548 317.907 195.355V252.835C317.904 255.642 316.788 258.332 314.803 260.317C312.819 262.301 310.128 263.417 307.322 263.421Z" fill="#50F1E2"/>
<path d="M333.625 391.835H178.375C172.422 391.829 166.715 389.461 162.506 385.251C158.296 381.042 155.929 375.335 155.922 369.382V142.282C155.929 136.329 158.296 130.621 162.506 126.412C166.715 122.203 172.422 119.835 178.375 119.828H333.625C339.578 119.835 345.285 122.203 349.494 126.412C353.704 130.621 356.071 136.329 356.078 142.282V369.382C356.071 375.335 353.704 381.042 349.494 385.251C345.285 389.461 339.578 391.829 333.625 391.835ZM178.375 123.677C173.443 123.683 168.714 125.645 165.226 129.133C161.738 132.62 159.777 137.349 159.771 142.282V369.382C159.777 374.314 161.738 379.043 165.226 382.531C168.714 386.019 173.443 387.981 178.375 387.986H333.625C338.557 387.981 343.286 386.019 346.774 382.531C350.262 379.043 352.223 374.314 352.229 369.382V142.282C352.223 137.349 350.262 132.62 346.774 129.132C343.286 125.645 338.557 123.683 333.625 123.677H178.375Z" fill="#E6E6E6"/>
</svg>
